<svg width="18" height="18" viewBox="0 0 18 18" fill="none" xmlns="http://www.w3.org/2000/svg">
<path d="M15.1118 8.86091C14.6306 7.61631 13.7953 6.53998 12.7091 5.76494C11.6229 4.98991 10.3334 4.55014 8.99996 4.5C7.66653 4.55014 6.37703 4.98991 5.29081 5.76494C4.2046 6.53998 3.3693 7.61631 2.88814 8.86091C2.85565 8.95079 2.85565 9.04921 2.88814 9.13909C3.3693 10.3837 4.2046 11.46 5.29081 12.2351C6.37703 13.0101 7.66653 13.4499 8.99996 13.5C10.3334 13.4499 11.6229 13.0101 12.7091 12.2351C13.7953 11.46 14.6306 10.3837 15.1118 9.13909C15.1443 9.04921 15.1443 8.95079 15.1118 8.86091ZM8.99996 12.6818C6.83178 12.6818 4.54087 11.0741 3.71041 9C4.54087 6.92591 6.83178 5.31818 8.99996 5.31818C11.1681 5.31818 13.4591 6.92591 14.2895 9C13.4591 11.0741 11.1681 12.6818 8.99996 12.6818Z" fill="#C4C4C4"/>
<path d="M8.99996 6.54544C8.51449 6.54544 8.03993 6.6894 7.63628 6.95911C7.23264 7.22882 6.91803 7.61216 6.73225 8.06067C6.54647 8.50918 6.49787 9.00271 6.59257 9.47884C6.68728 9.95498 6.92106 10.3923 7.26433 10.7356C7.60761 11.0789 8.04496 11.3127 8.5211 11.4074C8.99723 11.5021 9.49076 11.4535 9.93927 11.2677C10.3878 11.0819 10.7711 10.7673 11.0408 10.3637C11.3105 9.96001 11.4545 9.48545 11.4545 8.99999C11.4545 8.349 11.1959 7.72468 10.7356 7.26436C10.2753 6.80404 9.65094 6.54544 8.99996 6.54544ZM8.99996 10.6363C8.67631 10.6363 8.35994 10.5404 8.09084 10.3606C7.82174 10.1808 7.61201 9.9252 7.48815 9.62619C7.3643 9.32719 7.3319 8.99817 7.39504 8.68075C7.45817 8.36332 7.61402 8.07175 7.84287 7.8429C8.07172 7.61405 8.36329 7.4582 8.68072 7.39506C8.99814 7.33193 9.32716 7.36433 9.62617 7.48818C9.92517 7.61204 10.1807 7.82177 10.3605 8.09087C10.5403 8.35997 10.6363 8.67634 10.6363 8.99999C10.6363 9.43398 10.4639 9.85019 10.157 10.1571C9.85016 10.4639 9.43395 10.6363 8.99996 10.6363Z" fill="#C4C4C4"/>
</svg>
